# xmcd
# 
# Track frame offsets:
#     150
#     19395
#     39822
#     62422
#     81612
#     102637
#     127077
#     148590
#     169822
#     193787
# 
# Disc length: 2967
# 
# Revision: 3
# Processed by: cddbd v1.5.2PL0 Copyright (c) Steve Scherf et al.
# Submitted via: fre:ac v1.0.27
# 
DISCID=900b950a
DTITLE=辛島美登里 - Green
DYEAR=1991
DGENRE=Pop
TTITLE0=夢の中で～Graduation～
TTITLE1=オリーブの休日
TTITLE2=笑顔を探して
TTITLE3=恋はシャッフル
TTITLE4=サイレント・イブ
TTITLE5=Farewell
TTITLE6=一番みじかいkiss
TTITLE7=涙のリフレイン
TTITLE8=ネコの目
TTITLE9=裸足のエリーゼ
EXTD=
EXTT0=
EXTT1=
EXTT2=
EXTT3=
EXTT4=
EXTT5=
EXTT6=
EXTT7=
EXTT8=
EXTT9=
PLAYORDER=
